<?xml version="1.0" standalone="no"?><!DOCTYPE svg PUBLIC "-//W3C//DTD SVG 1.1//EN" "http://www.w3.org/Graphics/SVG/1.1/DTD/svg11.dtd"><svg t="1483683189898" class="icon" style="" viewBox="0 0 1024 1024" version="1.1" xmlns="http://www.w3.org/2000/svg" p-id="2988" xmlns:xlink="http://www.w3.org/1999/xlink" width="200" height="200"><defs><style type="text/css"></style></defs><path d="M810.666667 1024H213.333333c-117.333333 0-213.333333-96-213.333333-213.333333V213.333333C0 96 96 0 213.333333 0h597.333334c117.333333 0 213.333333 96 213.333333 213.333333v597.333334c0 117.333333-96 213.333333-213.333333 213.333333z" fill="#527ACB" p-id="2989"></path><path d="M828.444444 747.377778c7.822222 0 14.222222-6.4 14.222223-14.222222s-6.4-14.222222-14.222223-14.222223h-43.377777v-6.4l52.622222-54.755555c5.688889-5.688889 4.977778-14.933333 0-19.911111-5.688889-5.688889-14.222222-4.977778-19.911111 0.711111l-44.8 47.644444-47.644445-47.644444c-5.688889-5.688889-14.222222-5.688889-19.911111 0-5.688889 5.688889-5.688889 14.222222 0 19.911111l52.622222 52.622222v8.533333h-41.955555c-7.822222 0-14.222222 6.4-14.222222 14.222223s6.4 14.222222 14.222222 14.222222h41.955555v28.444444h-41.955555c-7.822222 0-14.222222 6.4-14.222222 14.222223s6.4 14.222222 14.222222 14.222222h41.955555v41.955555c0 7.822222 6.4 14.222222 14.222223 14.222223s14.222222-6.4 14.222222-14.222223V803.555556h43.377778c7.822222 0 14.222222-6.4 14.222222-14.222223s-6.4-14.222222-14.222222-14.222222h-43.377778v-28.444444h41.955555v0.711111z m0 0" fill="#FFFFFF" p-id="2990"></path><path d="M714.666667 632.888889c-3.555556 0-7.111111 1.422222-9.955556 4.266667-5.688889 5.688889-5.688889 14.222222 0 19.911111l0.711111 0.711111c4.977778-7.822222 8.533333-16.355556 12.8-24.888889h-3.555555z" fill="#FFFFFF" p-id="2991"></path><path d="M689.066667 672c-13.511111-13.511111-13.511111-36.266667 0-50.488889 6.4-6.4 15.644444-10.666667 24.888889-10.666667 3.555556 0 7.111111 0.711111 10.666666 1.422223 7.822222-23.466667 12.088889-48.355556 12.088889-74.666667 0-130.133333-105.244444-235.377778-235.377778-235.377778S265.955556 407.466667 265.955556 537.6s105.244444 235.377778 235.377777 235.377778c78.933333 0 148.622222-39.111111 191.288889-98.133334l-3.555555-2.844444zM595.911111 551.822222H474.311111V357.688889h49.777778v145.066667h72.533333v49.066666z" fill="#FFFFFF" p-id="2992"></path><path d="M714.666667 775.111111c-7.822222 0-14.222222 6.4-14.222223 14.222222v0.711111c5.688889-4.977778 12.088889-9.955556 17.066667-14.933333h-2.844444zM757.333333 718.933333h-41.955555c-7.822222 0-14.222222 6.4-14.222222 14.222223s6.4 14.222222 14.222222 14.222222h30.577778c22.755556-27.022222 41.244444-57.6 54.044444-90.311111l-27.022222 28.444444-27.733334-27.733333c-4.266667 9.244444-9.244444 17.777778-14.222222 26.311111l27.022222 27.022222v7.822222z" fill="#FFFFFF" p-id="2993"></path><path d="M679.111111 789.333333c0-11.377778 5.688889-22.044444 14.222222-28.444444-6.4-4.977778-11.377778-12.088889-13.511111-19.911111-47.644444 41.955556-109.511111 67.555556-178.488889 67.555555-148.622222 0-269.511111-120.888889-269.511111-269.511111s120.888889-269.511111 269.511111-269.511111 269.511111 120.888889 269.511111 269.511111c0 34.133333-6.4 66.844444-17.777777 96.711111l18.488889 18.488889 29.866666-31.288889c2.844444-2.844444 6.4-5.688889 9.955556-7.111111 5.688889-24.177778 9.244444-49.066667 9.244444-75.377778 0-161.422222-119.466667-294.4-274.488889-316.444444v-35.555556H618.666667V163.555556H401.777778v24.177777h72.533333v33.422223C310.044444 234.666667 181.333333 371.911111 181.333333 539.733333c0 177.066667 142.933333 320 320 320 67.555556 0 129.422222-20.622222 181.333334-56.177777-2.133333-4.266667-3.555556-8.533333-3.555556-14.222223z" fill="#FFFFFF" p-id="2994"></path></svg>