<?xml version="1.0" standalone="no"?><!DOCTYPE svg PUBLIC "-//W3C//DTD SVG 1.1//EN" "http://www.w3.org/Graphics/SVG/1.1/DTD/svg11.dtd"><svg t="1483683227065" class="icon" style="" viewBox="0 0 1024 1024" version="1.1" xmlns="http://www.w3.org/2000/svg" p-id="3515" xmlns:xlink="http://www.w3.org/1999/xlink" width="200" height="200"><defs><style type="text/css"></style></defs><path d="M810.666667 1024H213.333333c-117.333333 0-213.333333-96-213.333333-213.333333V213.333333C0 96 96 0 213.333333 0h597.333334c117.333333 0 213.333333 96 213.333333 213.333333v597.333334c0 117.333333-96 213.333333-213.333333 213.333333z" fill="#527ACB" p-id="3516"></path><path d="M701.155556 520.533333H619.377778c-4.266667 1.422222-9.244444-1.422222-9.955556-5.688889L597.333333 475.733333l-38.4 180.622223s-0.711111 9.244444-5.688889 9.244444h-13.511111c-4.266667 1.422222-8.533333-1.422222-9.955555-5.688889l-47.644445-236.088889-36.266666 170.666667c-1.422222 4.266667-6.4 7.822222-10.666667 6.4h-12.8c-4.266667 1.422222-9.244444-1.422222-10.666667-5.688889l-24.177777-75.377778h-65.422223c-4.266667 0-8.533333-3.555556-8.533333-8.533333v-16.355556c0-4.266667 3.555556-8.533333 8.533333-8.533333h81.066667c4.977778 0 9.244444 0.711111 10.666667 4.977778l12.8 39.111111 35.555555-184.888889s1.422222-5.688889 7.111111-5.688889h17.777778c4.266667-1.422222 8.533333 1.422222 9.955556 5.688889l47.644444 233.955556L578.844444 412.444444c1.422222-4.266667 4.266667-7.822222 8.533334-6.4h14.222222c4.266667-1.422222 9.244444 1.422222 9.955556 5.688889l24.177777 76.8h65.422223c4.266667 0 8.533333 3.555556 8.533333 8.533334v16.355555c0 3.555556-3.555556 7.111111-8.533333 7.111111z m0 0" fill="#FFFFFF" p-id="3517"></path><path d="M795.022222 285.155556H228.977778c-10.666667 0-19.2 8.533333-19.2 19.2v415.288888c0 10.666667 8.533333 19.2 19.2 19.2h566.044444c10.666667 0 19.2-8.533333 19.2-19.2V304.355556c0-10.666667-8.533333-19.2-19.2-19.2z m-32.711111 394.666666c0 8.533333-7.111111 15.644444-15.644444 15.644445H275.2c-8.533333 0-15.644444-7.111111-15.644444-15.644445V341.333333c0-8.533333 7.111111-15.644444 15.644444-15.644444h470.755556c8.533333 0 15.644444 7.111111 15.644444 15.644444v338.488889h0.711111z m0 0" fill="#FFFFFF" p-id="3518"></path></svg>