<?xml version="1.0" standalone="no"?><!DOCTYPE svg PUBLIC "-//W3C//DTD SVG 1.1//EN" "http://www.w3.org/Graphics/SVG/1.1/DTD/svg11.dtd"><svg t="1483683138590" class="icon" style="" viewBox="0 0 1024 1024" version="1.1" xmlns="http://www.w3.org/2000/svg" p-id="2463" xmlns:xlink="http://www.w3.org/1999/xlink" width="200" height="200"><defs><style type="text/css"></style></defs><path d="M810.666667 1024H213.333333c-117.333333 0-213.333333-96-213.333333-213.333333V213.333333C0 96 96 0 213.333333 0h597.333334c117.333333 0 213.333333 96 213.333333 213.333333v597.333334c0 117.333333-96 213.333333-213.333333 213.333333z" fill="#527ACB" p-id="2464"></path><path d="M649.244444 192c0.711111 0.711111 2.133333 0.711111 2.844445 1.422222 5.688889 2.133333 8.533333 6.4 8.533333 12.8v29.155556h4.977778c16.355556 0 33.422222-0.711111 49.777778 0.711111 25.6 1.422222 43.377778 19.2 43.377778 44.8v44.8c0 1.422222 0 2.844444-0.711112 3.555555-11.377778 11.377778-23.466667 22.755556-35.555555 34.844445v-4.977778-75.377778c0-8.533333-2.844444-12.088889-11.377778-12.088889h-48.355555c-0.711111 0-0.711111 0-2.133334 0.711112v13.511111c0 8.533333-5.688889 14.933333-14.222222 14.933333s-14.222222-5.688889-14.222222-14.222222v-14.222222h-60.444445v14.933333c0 7.822222-6.4 13.511111-14.222222 13.511111s-14.222222-5.688889-14.222222-12.8v-15.644444h-56.888889c-2.844444 0-4.266667 0.711111-4.266667 4.266666v12.088889c0 7.111111-6.4 12.8-14.222222 12.8s-13.511111-5.688889-13.511111-12.8v-15.644444h-66.133333v13.511111c0 6.4-2.844444 10.666667-8.533334 13.511111-5.688889 2.844444-10.666667 2.133333-15.644444-2.133333-2.844444-2.133333-4.977778-5.688889-4.977778-9.244445v-15.644444h-50.488889c-7.822222 0-9.955556 2.133333-9.955555 9.955555v504.177778c0 6.4 2.844444 9.244444 9.244444 9.955556h401.066667c8.533333 0 10.666667-2.844444 10.666666-11.377778V652.8c0-2.844444 0.711111-4.977778 2.844445-7.111111 9.955556-9.955556 20.622222-19.911111 30.577778-29.866667l2.844444-2.844444v172.088889c0 24.177778-12.8 41.244444-35.555555 46.222222-4.266667 0.711111-8.533333 1.422222-13.511112 1.422222H312.888889c-18.488889 0-34.133333-6.4-44.8-22.044444-4.977778-6.4-7.111111-14.222222-7.111111-22.044445v-3.555555-499.911111c0-10.666667 2.133333-21.333333 8.533333-29.866667 9.244444-11.377778 22.044444-16.355556 36.266667-17.066667 15.644444-0.711111 31.288889-0.711111 46.933333-0.711111h4.977778v-27.022222c0-9.244444 2.133333-12.088889 10.666667-15.644445l0.711111-0.711111H376.888889c0.711111 0 0.711111 0.711111 1.422222 0.711111 7.111111 2.844444 9.955556 6.4 9.955556 14.222223V236.8h63.288889c2.844444 0 2.844444-1.422222 2.844444-3.555556v-26.311111c0-4.977778 2.133333-7.822222 5.688889-10.666666 2.133333-1.422222 4.266667-2.133333 6.4-2.844445h4.977778c0.711111 0 1.422222 0.711111 1.422222 0.711111 7.111111 2.844444 9.955556 6.4 9.955555 14.222223v28.444444h60.444445v-28.444444c0-6.4 2.844444-9.955556 8.533333-12.8 1.422222-0.711111 2.844444-1.422222 3.555556-1.422223h4.977778c0.711111 0 0.711111 0.711111 1.422222 0.711111 7.822222 2.844444 10.666667 6.4 10.666666 14.222223v28.444444h59.733334v-4.266667-24.888888c0-6.4 2.844444-9.955556 8.533333-12.8 1.422222-0.711111 2.133333-1.422222 3.555556-1.422223 1.422222-2.133333 2.844444-2.133333 4.977777-2.133333z m0 0" fill="#FFFFFF" p-id="2465"></path><path d="M738.844444 394.666667l100.977778 98.844444c-0.711111 0.711111-1.422222 2.133333-2.844444 2.844445-78.933333 78.222222-157.866667 155.733333-236.8 233.955555-4.266667 4.266667-9.244444 6.4-14.222222 7.822222-41.244444 12.8-81.777778 25.6-123.022223 38.4-1.422222 0-2.133333 0.711111-3.555555 0.711111-7.111111 0.711111-11.377778-4.266667-9.244445-10.666666 2.844444-9.955556 6.4-19.2 9.244445-29.155556 9.955556-31.288889 19.911111-61.866667 29.866666-93.155555 2.133333-6.4 5.688889-12.088889 10.666667-17.066667 14.222222-12.8 27.733333-25.6 42.666667-39.111111H390.4c-9.244444 0-16.355556-9.244444-13.511111-16.355556 2.133333-6.4 7.111111-9.955556 14.222222-9.955555h170.666667c3.555556 0 5.688889-0.711111 7.822222-2.844445 54.755556-54.044444 110.222222-107.377778 164.977778-161.422222 1.422222-1.422222 2.844444-2.133333 4.266666-2.844444zM541.155556 634.311111c1.422222-0.711111 4.266667-2.133333 6.4-4.266667 61.866667-60.444444 123.733333-120.888889 184.888888-182.044444 0.711111-0.711111 1.422222-1.422222 2.133334-2.844444 2.133333-2.844444 2.844444-5.688889 1.422222-9.244445s-4.266667-4.977778-7.111111-5.688889c-3.555556 0-6.4 1.422222-9.244445 4.266667-28.444444 28.444444-57.6 56.177778-86.044444 84.622222-33.422222 32.711111-66.844444 66.133333-100.977778 98.844445-2.844444 2.844444-4.266667 6.4-2.844444 10.666666 2.133333 4.266667 5.688889 5.688889 11.377778 5.688889z m25.6 89.6c-0.711111 0-0.711111 0.711111-1.422223 0.711111-19.911111-20.622222-39.822222-41.955556-60.444444-62.577778-0.711111 0.711111-0.711111 1.422222-0.711111 1.422223-4.977778 16.355556-10.666667 32-15.644445 48.355555-0.711111 1.422222 0.711111 3.555556 1.422223 4.266667 7.111111 7.822222 14.933333 14.933333 22.044444 22.044444 1.422222 1.422222 2.844444 2.133333 5.688889 1.422223 14.222222-4.266667 27.733333-9.244444 41.955555-13.511112 2.133333-0.711111 4.266667-1.422222 7.111112-2.133333z m0 0M757.333333 376.177778c12.088889-12.088889 24.888889-24.888889 38.4-36.977778 8.533333-7.822222 25.6-11.377778 37.688889 1.422222 19.911111 19.911111 39.822222 39.822222 60.444445 59.022222 12.088889 11.377778 10.666667 28.444444 2.133333 38.4-7.111111 8.533333-14.933333 15.644444-22.755556 23.466667-5.688889 4.977778-10.666667 10.666667-17.066666 16.355556-32.711111-34.133333-65.422222-68.266667-98.844445-101.688889z m0 0" fill="#FFFFFF" p-id="2466"></path><path d="M508.444444 491.377778H391.822222c-7.111111 0-10.666667-2.133333-12.8-7.822222-2.133333-5.688889-1.422222-12.088889 3.555556-16.355556 2.133333-2.133333 5.688889-2.844444 8.533333-2.844444 9.244444-0.711111 18.488889 0 27.733333 0h205.511112c5.688889 0 9.955556 1.422222 12.8 6.4 2.844444 5.688889 2.844444 10.666667-0.711112 15.644444-2.133333 3.555556-5.688889 5.688889-10.666666 5.688889-39.111111-0.711111-78.222222-0.711111-117.333334-0.711111z m0 0M507.733333 399.644444H391.822222c-7.111111 0-10.666667-2.133333-12.8-7.822222-2.133333-5.688889-0.711111-12.088889 3.555556-16.355555 1.422222-1.422222 3.555556-2.133333 5.688889-2.844445 1.422222-0.711111 2.844444 0 3.555555 0h232.533334c11.377778 0 18.488889 12.8 12.088888 21.333334-2.844444 4.266667-6.4 5.688889-10.666666 5.688888H507.733333z m0 0" fill="#FFFFFF" p-id="2467"></path></svg>