<?xml version="1.0" standalone="no"?><!DOCTYPE svg PUBLIC "-//W3C//DTD SVG 1.1//EN" "http://www.w3.org/Graphics/SVG/1.1/DTD/svg11.dtd"><svg t="1483683181660" class="icon" style="" viewBox="0 0 1024 1024" version="1.1" xmlns="http://www.w3.org/2000/svg" p-id="2857" xmlns:xlink="http://www.w3.org/1999/xlink" width="200" height="200"><defs><style type="text/css"></style></defs><path d="M810.666667 1024H213.333333c-117.333333 0-213.333333-96-213.333333-213.333333V213.333333C0 96 96 0 213.333333 0h597.333334c117.333333 0 213.333333 96 213.333333 213.333333v597.333334c0 117.333333-96 213.333333-213.333333 213.333333z" fill="#527ACB" p-id="2858"></path><path d="M498.488889 336.355556c-9.244444 0-17.066667 7.822222-17.066667 17.066666v150.044445c-8.533333 5.688889-14.222222 14.933333-14.222222 25.6 0 17.066667 14.222222 31.288889 31.288889 31.288889 11.377778 0 20.622222-5.688889 26.311111-14.222223h165.688889c9.244444 0 17.066667-7.822222 17.066667-17.066666 0-9.244444-7.822222-17.066667-17.066667-17.066667H524.8c-2.133333-3.555556-5.688889-6.4-9.244444-9.244444v-149.333334c0.711111-9.244444-7.111111-17.066667-17.066667-17.066666" fill="#FFFFFF" p-id="2859"></path><path d="M528.355556 195.555556c-170.666667 0-310.044444 131.555556-320 297.244444h-34.133334L239.644444 604.444444l65.422223-111.644444h-31.288889C283.733333 362.666667 393.955556 260.266667 528.355556 260.266667c140.8 0 255.288889 113.066667 255.288888 251.733333s-114.488889 251.733333-255.288888 251.733333c-49.066667 0-96-13.511111-137.244445-39.111111-29.866667-18.488889-54.755556-42.666667-74.666667-71.822222l-54.755555 36.266667c24.888889 36.266667 56.888889 66.844444 93.866667 90.311111 51.2 32.711111 110.933333 49.777778 172.8 49.777778 177.066667 0 321.422222-142.222222 321.422222-316.444445 0-174.933333-144.355556-317.155556-321.422222-317.155555" fill="#FFFFFF" p-id="2860"></path></svg>