<?xml version="1.0" standalone="no"?><!DOCTYPE svg PUBLIC "-//W3C//DTD SVG 1.1//EN" "http://www.w3.org/Graphics/SVG/1.1/DTD/svg11.dtd"><svg t="1483683111419" class="icon" style="" viewBox="0 0 1024 1024" version="1.1" xmlns="http://www.w3.org/2000/svg" p-id="2201" xmlns:xlink="http://www.w3.org/1999/xlink" width="200" height="200"><defs><style type="text/css"></style></defs><path d="M810.666667 1024H213.333333c-117.333333 0-213.333333-96-213.333333-213.333333V213.333333C0 96 96 0 213.333333 0h597.333334c117.333333 0 213.333333 96 213.333333 213.333333v597.333334c0 117.333333-96 213.333333-213.333333 213.333333z" fill="#527ACB" p-id="2202"></path><path d="M688.355556 769.422222v-27.022222h-22.044445v27.022222H556.8v-27.022222h-22.044444v27.022222H425.244444v-27.022222h-22.044444v27.022222H293.688889v-27.022222h-22.044445v27.022222h-57.6v-60.444444h22.044445v-22.044445h-22.044445V576h22.044445v-22.044444h-22.044445V442.311111h22.044445v-22.044444h-22.044445V309.333333h22.044445v-22.044444h-22.044445v-54.755556H192v560.355556h640v-22.044445H688.355556v-1.422222zM387.555556 477.155556l25.6 25.6 20.622222-20.622223-46.222222-46.933333L277.333333 546.844444l20.622223 20.622223 89.6-90.311111zM524.088889 462.222222L611.555556 551.111111l134.4-136.533333v31.288889c0 8.533333 6.4 14.933333 14.933333 14.933333 7.822222 0 14.933333-6.4 14.933333-14.933333v-66.844445c0-4.266667-1.422222-7.822222-4.266666-10.666666-2.844444-2.844444-6.4-4.266667-10.666667-4.266667h-66.133333c-7.822222 0-14.933333 6.4-14.933334 14.933333 0 8.533333 6.4 14.933333 14.933334 14.933334h30.577777L611.555556 509.155556 524.088889 420.266667 277.333333 670.577778l20.622223 20.622222L524.088889 462.222222zM760.888889 619.377778c7.822222 0 14.933333-6.4 14.933333-14.933334v-66.844444c0-4.266667-1.422222-7.822222-4.266666-10.666667-2.844444-2.844444-6.4-4.266667-10.666667-4.266666h-66.133333c-7.822222 0-14.933333 6.4-14.933334 14.933333 0 8.533333 6.4 14.933333 14.933334 14.933333h29.866666L614.4 664.888889 483.555556 532.622222l-20.622223 20.622222 151.466667 153.6L746.666667 573.155556V604.444444c-0.711111 8.533333 6.4 14.933333 14.222222 14.933334z m0 0" fill="#FFFFFF" p-id="2203"></path></svg>