<?xml version="1.0" standalone="no"?><!DOCTYPE svg PUBLIC "-//W3C//DTD SVG 1.1//EN" "http://www.w3.org/Graphics/SVG/1.1/DTD/svg11.dtd"><svg t="1483684555420" class="icon" style="" viewBox="0 0 1024 1024" version="1.1" xmlns="http://www.w3.org/2000/svg" p-id="3777" xmlns:xlink="http://www.w3.org/1999/xlink" width="200" height="200"><defs><style type="text/css"></style></defs><path d="M810.666667 1024H213.333333c-117.333333 0-213.333333-96-213.333333-213.333333V213.333333C0 96 96 0 213.333333 0h597.333334c117.333333 0 213.333333 96 213.333333 213.333333v597.333334c0 117.333333-96 213.333333-213.333333 213.333333z" fill="#8D65C4" p-id="3778"></path><path d="M791.466667 685.511111H746.666667V437.333333h64.711111L492.088889 192h-6.4L166.4 437.333333h64.711111V803.555556H611.555556c13.511111 24.888889 40.533333 42.666667 71.111111 42.666666h109.511111c44.088889 0 80.355556-36.266667 80.355555-80.355555-0.711111-44.088889-36.977778-80.355556-81.066666-80.355556z m-388.266667 80.355556H299.377778V662.044444h103.822222v103.822223z m0-140.8H299.377778V521.955556h103.822222v103.111111z m0-140.088889H299.377778V381.866667h103.822222v103.111111z m132.266667 280.888889H431.644444V662.044444h103.822223v103.822223z m0-140.8H431.644444V521.955556h103.822223v103.111111z m28.444444 36.977777h103.822222v24.888889c-37.688889 7.111111-66.133333 39.822222-66.133333 78.933334h-37.688889V662.044444z m227.555556 169.955556H681.955556c-22.044444 0-41.955556-11.377778-54.044445-28.444444-0.711111-1.422222-1.422222-2.133333-2.133333-3.555556 0-0.711111-0.711111-0.711111-0.711111-1.422222-0.711111-1.422222-1.422222-2.133333-2.133334-3.555556 0-0.711111-0.711111-1.422222-0.711111-1.422222-0.711111-1.422222-0.711111-2.133333-1.422222-3.555556s-1.422222-2.844444-1.422222-4.977777c0-0.711111-0.711111-1.422222-0.711111-2.133334 0-1.422222-0.711111-2.133333-0.711111-3.555555 0-0.711111 0-1.422222-0.711112-2.133334 0-1.422222-0.711111-2.844444-0.711111-4.266666v-2.133334-6.4c0-31.288889 22.044444-57.6 51.911111-64 2.133333-0.711111 4.266667-0.711111 7.111112-1.422222 2.133333 0 4.977778-0.711111 7.111111-0.711111H792.177778c36.266667 0 66.133333 29.866667 66.133333 66.133333-0.711111 37.688889-30.577778 67.555556-66.844444 67.555556z" fill="#FFFFFF" p-id="3779"></path><path d="M689.066667 765.866667m-55.466667 0a55.466667 55.466667 0 1 0 110.933333 0 55.466667 55.466667 0 1 0-110.933333 0Z" fill="#FFFFFF" p-id="3780"></path></svg>