<?xml version="1.0" standalone="no"?><!DOCTYPE svg PUBLIC "-//W3C//DTD SVG 1.1//EN" "http://www.w3.org/Graphics/SVG/1.1/DTD/svg11.dtd"><svg t="1483684582786" class="icon" style="" viewBox="0 0 1024 1024" version="1.1" xmlns="http://www.w3.org/2000/svg" p-id="4039" xmlns:xlink="http://www.w3.org/1999/xlink" width="200" height="200"><defs><style type="text/css"></style></defs><path d="M810.666667 1024H213.333333c-117.333333 0-213.333333-96-213.333333-213.333333V213.333333C0 96 96 0 213.333333 0h597.333334c117.333333 0 213.333333 96 213.333333 213.333333v597.333334c0 117.333333-96 213.333333-213.333333 213.333333z" fill="#8D65C4" p-id="4040"></path><path d="M191.288889 663.466667h641.422222c16.355556 0 29.866667-13.511111 29.866667-29.866667V261.688889c0-16.355556-13.511111-29.866667-29.866667-29.866667H191.288889c-16.355556 0-29.866667 13.511111-29.866667 29.866667v371.911111c0 16.355556 13.511111 29.866667 29.866667 29.866667zM476.444444 633.6l0.711112-4.266667L497.777778 492.088889l20.622222 137.244444 0.711111 4.266667h-42.666667zM191.288889 261.688889h641.422222v371.911111H657.066667C638.577778 540.444444 604.444444 514.133333 554.666667 483.555556l-4.266667-2.133334c-9.244444-6.4-19.911111-10.666667-31.288889-13.511111l-21.333333 21.333333-20.622222-21.333333c-10.666667 2.844444-21.333333 7.111111-31.288889 13.511111-1.422222 0.711111-3.555556 1.422222-4.977778 2.133334-50.488889 30.577778-83.911111 56.888889-103.111111 150.044444H191.288889V261.688889z m0 0M895.288889 754.488889c-0.711111 0.711111-2.133333 0.711111-2.844445 0.711111h-760.888888c-0.711111 0-2.133333 0-2.844445-0.711111-2.844444 0-5.688889 1.422222-7.111111 4.266667-1.422222 2.844444-1.422222 6.4 0.711111 9.244444 2.844444 4.977778 8.533333 13.511111 129.422222 19.2 68.266667 3.555556 159.288889 4.977778 256 4.977778 86.755556 0 372.622222-1.422222 392.533334-23.466667 2.133333-2.133333 2.844444-4.977778 2.844444-7.822222-0.711111-3.555556-3.555556-6.4-7.822222-6.4z m-329.244445 23.466667H457.955556c-2.844444 0-4.266667-2.133333-4.266667-4.266667 0-2.844444 2.133333-4.266667 4.266667-4.266667h107.377777c2.133333 0 4.266667 2.133333 4.266667 4.266667 0.711111 2.133333-1.422222 4.266667-3.555556 4.266667z m0 0M128.711111 746.666667h766.577778c2.844444-1.422222 4.266667-3.555556 4.266667-7.111111 0-2.133333-0.711111-4.266667-2.133334-5.688889l-46.222222-62.577778c-1.422222-2.133333-3.555556-2.844444-6.4-2.844445H180.622222c-2.133333 0-4.266667 1.422222-5.688889 2.844445l-49.066666 64c-1.422222 2.133333-2.133333 5.688889-0.711111 7.822222 0.711111 1.422222 2.133333 2.844444 3.555555 3.555556z m55.466667-63.288889h657.066666l36.266667 49.066666H146.488889l37.688889-49.066666z m0 0" fill="#FFFFFF" p-id="4041"></path><path d="M788.622222 431.644444h37.688889v4.977778h-37.688889v-4.977778z m0 0M745.244444 443.022222h81.777778v4.977778h-81.777778v-4.977778z m0 0M768.711111 454.4h57.6v4.977778h-57.6v-4.977778z m0 0M776.533333 467.2h49.777778v4.977778h-49.777778v-4.977778z m0 0M718.933333 477.866667h108.088889v4.977777h-108.088889v-4.977777z m0 0M750.222222 489.955556h76.088889v4.977777h-76.088889v-4.977777z m0 0M738.844444 526.933333c-9.955556 8.533333-16.355556 20.622222-16.355555 34.844445 0 24.888889 19.911111 44.8 44.8 44.8s44.8-19.911111 44.8-44.8-19.911111-44.8-44.8-44.8c-9.955556 0-19.2 3.555556-27.022222 8.533333l-12.088889-12.088889h-41.955556v2.133334h40.533334l12.088888 11.377777z m2.844445 2.844445l9.955555 9.955555c-7.111111 4.977778-11.377778 12.8-11.377777 22.044445 0 14.933333 12.088889 27.022222 27.022222 27.022222 14.933333 0 27.022222-12.088889 27.022222-27.022222 0-14.933333-12.088889-27.022222-27.022222-27.022222-4.977778 0-9.955556 1.422222-13.511111 3.555555l-9.955556-9.955555c7.111111-4.977778 14.933333-7.822222 24.177778-7.822223 22.755556 0 41.244444 18.488889 41.244444 41.244445 0 22.755556-18.488889 41.244444-41.244444 41.244444-22.755556 0-41.244444-18.488889-41.244444-41.244444-0.711111-12.8 5.688889-24.177778 14.933333-32z m26.311111 7.111111c13.511111 0 24.888889 11.377778 24.888889 24.888889s-11.377778 24.888889-24.888889 24.888889-24.888889-11.377778-24.888889-24.888889c-0.711111-13.511111 10.666667-24.888889 24.888889-24.888889z m0 0M203.377778 288h65.422222v9.955556h-65.422222v-9.955556z m0 0M276.622222 288H341.333333v9.955556h-65.422222v-9.955556h0.711111z m0 0M203.377778 383.288889h70.4v2.844444h-70.4v-2.844444z m0 0M203.377778 369.066667h113.066666v2.844444H203.377778v-2.844444z m0 0M203.377778 354.133333h51.2v2.844445h-51.2v-2.844445z m0 0M203.377778 339.2h81.777778v2.844444H203.377778v-2.844444z m0 0M203.377778 322.133333h99.555555v2.844445h-99.555555v-2.844445z m0 0M203.377778 307.911111h81.777778v2.844445H203.377778v-2.844445z m0 0M497.777778 462.933333c46.933333 0 85.333333-38.4 85.333333-85.333333s-38.4-85.333333-85.333333-85.333333-85.333333 38.4-85.333334 85.333333 38.4 85.333333 85.333334 85.333333z m0 0" fill="#FFFFFF" p-id="4042"></path></svg>