<?xml version="1.0" standalone="no"?><!DOCTYPE svg PUBLIC "-//W3C//DTD SVG 1.1//EN" "http://www.w3.org/Graphics/SVG/1.1/DTD/svg11.dtd"><svg t="1483684569181" class="icon" style="" viewBox="0 0 1024 1024" version="1.1" xmlns="http://www.w3.org/2000/svg" p-id="3908" xmlns:xlink="http://www.w3.org/1999/xlink" width="200" height="200"><defs><style type="text/css"></style></defs><path d="M810.666667 1024H213.333333c-117.333333 0-213.333333-96-213.333333-213.333333V213.333333C0 96 96 0 213.333333 0h597.333334c117.333333 0 213.333333 96 213.333333 213.333333v597.333334c0 117.333333-96 213.333333-213.333333 213.333333z" fill="#8D65C4" p-id="3909"></path><path d="M760.974222 597.781333L632.362667 536.391111l-54.442667-25.976889c23.751111-14.997333 43.050667-38.051556 55.694222-65.827555a178.752 178.752 0 0 0 15.971556-73.891556c0-15.004444-2.360889-29.304889-5.696-43.057778-16.248889-66.666667-68.195556-115.697778-130.695111-115.697777-61.248 0-112.497778 47.36-129.720889 112.085333-4.032 14.862222-6.670222 30.279111-6.670222 46.670222 0 28.472889 6.670222 54.862222 17.92 77.916445 13.056 26.666667 32.355556 48.746667 55.829333 62.919111l-52.081778 24.305777-132.778667 61.802667c-11.52 5.418667-19.164444 18.474667-19.164444 32.917333v145.969778c0 19.584 13.610667 35.413333 30.414222 35.413334H474.168889V700.145778a6.186667 6.186667 0 0 1 0.967111-3.2h-0.142222l32.369778-55.964445h0.142222c1.102222-1.948444 3.185778-3.335111 5.688889-3.335111s4.444444 1.386667 5.688889 3.335111l0.284444 0.554667c0 0.142222 0.142222 0.142222 0.142222 0.277333l31.943111 55.274667a6.606222 6.606222 0 0 1 0.967111 3.2v111.800889h197.226667c16.803556 0 30.414222-15.829333 30.414222-35.413333V630.684444c0-14.435556-7.36-27.356444-18.887111-32.917333zM551.111111 560.412444l-32.220444 55.964445h-0.142223c-1.109333 1.948444-3.192889 3.342222-5.688888 3.342222s-4.451556-1.393778-5.696-3.342222l-0.284445-0.547556-0.135111-0.142222-31.943111-55.274667a6.606222 6.606222 0 0 1-0.974222-3.2c0-3.605333 2.915556-6.663111 6.670222-6.663111h64.583111c3.605333 0 6.663111 2.915556 6.663111 6.663111 0.284444 1.116444-0.142222 2.225778-0.832 3.2zM690.488889 294.4h161.422222v26.311111H690.488889z" fill="#FFFFFF" p-id="3910"></path><path d="M758.471111 387.911111v-161.422222h26.311111v161.422222z" fill="#FFFFFF" p-id="3911"></path></svg>