<?xml version="1.0" standalone="no"?><!DOCTYPE svg PUBLIC "-//W3C//DTD SVG 1.1//EN" "http://www.w3.org/Graphics/SVG/1.1/DTD/svg11.dtd"><svg t="1483683068998" class="icon" style="" viewBox="0 0 1024 1024" version="1.1" xmlns="http://www.w3.org/2000/svg" p-id="2070" xmlns:xlink="http://www.w3.org/1999/xlink" width="200" height="200"><defs><style type="text/css"></style></defs><path d="M810.666667 1024H213.333333c-117.333333 0-213.333333-96-213.333333-213.333333V213.333333C0 96 96 0 213.333333 0h597.333334c117.333333 0 213.333333 96 213.333333 213.333333v597.333334c0 117.333333-96 213.333333-213.333333 213.333333z" fill="#F75444" p-id="2071" class=""></path><path d="M105.955556 644.266667h91.022222v104.533333H105.955556zM463.644444 534.044444h93.155556V696.888889H463.644444zM705.422222 379.733333h87.466667v154.311111H705.422222zM896.711111 288.711111v334.222222h-52.622222v-334.222222h52.622222m21.333333-21.333333h-95.288888v376.888889h95.288888v-376.888889zM659.2 477.155556v50.488888h-56.177778v-50.488888h56.177778m21.333333-21.333334H581.688889v93.155556h98.844444V455.822222zM417.422222 524.088889V604.444444h-54.044444V524.088889h54.044444m21.333334-21.333333H342.044444V625.777778h96.711112V502.755556zM299.377778 646.4v90.311111h-54.044445V646.4h54.044445m21.333333-21.333333H224v132.977777h96.711111V625.066667zM137.955556 615.111111h28.444444v29.155556h-28.444444z" fill="#FFFFFF" p-id="2072"></path><path d="M376.177778 455.822222h28.444444v62.577778h-28.444444zM258.133333 605.866667h28.444445v23.466666h-28.444445zM258.133333 758.044444h28.444445v38.4h-28.444445zM497.777778 502.755556h26.311111v31.288888H497.777778zM617.244444 435.2h26.311112v22.044444h-26.311112zM617.244444 548.977778h26.311112v47.644444h-26.311112zM737.422222 534.044444h28.444445v39.111112h-28.444445zM857.6 227.555556h24.888889v39.822222h-24.888889zM857.6 644.266667h24.888889v34.133333h-24.888889z" fill="#FFFFFF" p-id="2073"></path></svg>