<?xml version="1.0" standalone="no"?><!DOCTYPE svg PUBLIC "-//W3C//DTD SVG 1.1//EN" "http://www.w3.org/Graphics/SVG/1.1/DTD/svg11.dtd"><svg t="1483683202131" class="icon" style="" viewBox="0 0 1024 1024" version="1.1" xmlns="http://www.w3.org/2000/svg" p-id="3253" xmlns:xlink="http://www.w3.org/1999/xlink" width="200" height="200"><defs><style type="text/css"></style></defs><path d="M810.666667 1024H213.333333c-117.333333 0-213.333333-96-213.333333-213.333333V213.333333C0 96 96 0 213.333333 0h597.333334c117.333333 0 213.333333 96 213.333333 213.333333v597.333334c0 117.333333-96 213.333333-213.333333 213.333333z" fill="#F75444" p-id="3254"></path><path d="M690.488889 470.755556l-115.2 0.711111v36.266666l115.2-0.711111v-36.266666z m0-66.844445l-115.2 0.711111V440.888889l115.2-0.711111v-36.266667zM576 539.022222v36.266667l115.2-0.711111v-36.266667l-115.2 0.711111z m201.244444-203.377778h36.977778l-0.711111-93.866666-290.133333 2.133333v-53.333333h-34.844445v53.333333l-279.466666 2.133333 0.711111 93.866667h30.577778l1.422222 355.555556 213.333333-1.422223-128 112.355556 22.044445 27.733333 162.133333-141.511111h0.711111L675.555556 832l22.044444-28.444444-130.844444-110.933334 212.622222-1.422222-2.133334-355.555556zM277.333333 657.777778l-1.422222-319.288889 467.2-2.844445 1.422222 319.288889-467.2 2.844445z m227.555556-179.911111c-2.133333-52.622222-44.088889-93.155556-93.155556-90.311111C362.666667 389.688889 324.977778 433.777778 327.111111 486.4c2.133333 52.622222 44.088889 93.155556 93.155556 90.311111l-4.266667-95.288889 88.888889-3.555555z m-58.311111 123.733333c49.066667-2.844444 86.755556-46.933333 84.622222-99.555556l-88.888889 4.266667 4.266667 95.288889z m0 0" fill="#FFFFFF" p-id="3255"></path></svg>