<?xml version="1.0" standalone="no"?><!DOCTYPE svg PUBLIC "-//W3C//DTD SVG 1.1//EN" "http://www.w3.org/Graphics/SVG/1.1/DTD/svg11.dtd"><svg t="1483683153440" class="icon" style="" viewBox="0 0 1024 1024" version="1.1" xmlns="http://www.w3.org/2000/svg" p-id="2595" xmlns:xlink="http://www.w3.org/1999/xlink" width="200" height="200"><defs><style type="text/css"></style></defs><path d="M810.666667 1024H213.333333c-117.333333 0-213.333333-96-213.333333-213.333333V213.333333C0 96 96 0 213.333333 0h597.333334c117.333333 0 213.333333 96 213.333333 213.333333v597.333334c0 117.333333-96 213.333333-213.333333 213.333333z" fill="#F75444" p-id="2596"></path><path d="M240.355556 204.8L156.444444 403.2l41.955556 23.466667 96-196.266667-54.044444-25.6z m0 0M511.288889 334.933333l-83.2 56.888889s-117.333333 15.644444-57.6-88.177778l108.8-70.4s-17.777778-47.644444-125.866667 25.6l-45.511111-15.644444L241.777778 426.666667l52.622222 56.177777s48.355556-43.377778 85.333333 7.111112c0 0 49.777778-51.911111 90.311111 25.6 0 0 73.955556-28.444444 48.355556 72.533333 0 0 29.155556 18.488889 36.266667 51.911111 0 0 34.133333-2.844444 51.911111-41.955556 0 0 33.422222-4.977778 51.2-39.822222 0 0 36.977778-7.822222 41.244444-36.266666L531.911111 334.933333s-12.8-7.111111-20.622222 0z m0 0" fill="#FFFFFF" p-id="2597"></path><path d="M326.4 480.711111l-32 36.977778s-7.111111 41.244444 32 32l36.977778-41.244445s0.711111-34.844444-36.977778-27.733333z m0 0M398.222222 492.088889l-43.377778 54.755555c-12.088889 46.222222 40.533333 41.244444 40.533334 41.244445l49.777778-68.266667c-17.066667-49.066667-46.933333-27.733333-46.933334-27.733333z m0 0M459.377778 534.044444l-45.511111 61.155556c-7.111111 42.666667 39.111111 39.822222 39.111111 39.822222l51.911111-61.866666c-2.133333-49.777778-45.511111-39.111111-45.511111-39.111112z m0 0M497.777778 612.266667l-23.466667 29.155555c-7.111111 42.666667 30.577778 35.555556 30.577778 35.555556l27.022222-29.866667c12.088889-43.377778-34.133333-34.844444-34.133333-34.844444z m0 0M609.422222 242.488889s-29.155556-20.622222-71.822222-14.222222L377.6 335.644444s-24.888889 51.2 28.444444 42.666667l110.933334-68.977778s13.511111-2.844444 15.644444 2.133334l128 139.377777 51.911111 57.6s46.933333-7.111111 66.844445-76.088888l-87.466667-163.555556c0-0.711111-66.844444 14.222222-82.488889-26.311111z m0 0M766.577778 204.8l-50.488889 47.644444 97.422222 179.911112 53.333333-34.844445-100.266666-192.711111z m0 0" fill="#FFFFFF" p-id="2598"></path><path d="M583.111111 835.555556H223.288889c-19.911111 0-35.555556-16.355556-35.555556-35.555556 0-19.911111 16.355556-35.555556 35.555556-35.555556H583.111111c19.911111 0 35.555556 16.355556 35.555556 35.555556 0 19.911111-16.355556 35.555556-35.555556 35.555556z" fill="#FFFFFF" p-id="2599"></path></svg>