<?xml version="1.0" standalone="no"?><!DOCTYPE svg PUBLIC "-//W3C//DTD SVG 1.1//EN" "http://www.w3.org/Graphics/SVG/1.1/DTD/svg11.dtd"><svg t="1483683164921" class="icon" style="" viewBox="0 0 1024 1024" version="1.1" xmlns="http://www.w3.org/2000/svg" p-id="2727" xmlns:xlink="http://www.w3.org/1999/xlink" width="200" height="200"><defs><style type="text/css"></style></defs><path d="M810.666667 1024H213.333333c-117.333333 0-213.333333-96-213.333333-213.333333V213.333333C0 96 96 0 213.333333 0h597.333334c117.333333 0 213.333333 96 213.333333 213.333333v597.333334c0 117.333333-96 213.333333-213.333333 213.333333z" fill="#E89D4D" p-id="2728"></path><path d="M263.111111 814.222222h83.2v-156.444444H263.111111v156.444444z m138.666667 0h83.2V584.533333H401.777778v229.688889z m155.733333 0h83.2V525.511111H557.511111v288.711111z m150.044445 0h83.2V442.311111H707.555556v371.911111z m73.955555-440.177778l32.711111-164.266666-187.022222 36.977778 57.6 47.644444-162.133333 148.622222-80.355556-63.288889-232.533333 209.777778 34.133333 29.155556 200.533333-181.333334 80.355556 64 194.133333-177.777777 62.577778 50.488888z m0 0" fill="#FFFFFF" p-id="2729"></path></svg>