<?xml version="1.0" standalone="no"?><!DOCTYPE svg PUBLIC "-//W3C//DTD SVG 1.1//EN" "http://www.w3.org/Graphics/SVG/1.1/DTD/svg11.dtd"><svg t="1483683130792" class="icon" style="" viewBox="0 0 1024 1024" version="1.1" xmlns="http://www.w3.org/2000/svg" p-id="2331" xmlns:xlink="http://www.w3.org/1999/xlink" width="200" height="200"><defs><style type="text/css"></style></defs><path d="M810.666667 1024H213.333333c-117.333333 0-213.333333-96-213.333333-213.333333V213.333333C0 96 96 0 213.333333 0h597.333334c117.333333 0 213.333333 96 213.333333 213.333333v597.333334c0 117.333333-96 213.333333-213.333333 213.333333z" fill="#E89D4D" p-id="2332"></path><path d="M243.2 576c28.444444 0 51.2-22.755556 51.2-51.2 0-12.8-4.977778-24.888889-12.8-33.422222L456.533333 291.555556c5.688889 2.133333 11.377778 2.844444 17.066667 2.844444 5.688889 0 10.666667-1.422222 15.644444-2.844444l113.066667 313.6c-8.533333 9.244444-13.511111 21.333333-13.511111 34.133333 0 28.444444 22.755556 51.2 51.2 51.2s51.2-22.755556 51.2-51.2c0-13.511111-4.977778-24.888889-13.511111-34.133333l98.133333-196.977778c1.422222 0 2.844444 0.711111 4.977778 0.711111 28.444444 0 51.2-22.755556 51.2-51.2s-22.755556-51.2-51.2-51.2-51.2 22.755556-51.2 51.2c0 17.777778 8.533333 32.711111 22.044444 41.955555l-95.288888 192c-4.977778-1.422222-10.666667-2.844444-16.355556-2.844444-5.688889 0-10.666667 1.422222-15.644444 2.844444L511.288889 277.333333c8.533333-9.244444 13.511111-21.333333 13.511111-34.133333 0-28.444444-22.755556-51.2-51.2-51.2s-51.2 22.755556-51.2 51.2c0 12.8 4.977778 24.888889 12.8 33.422222L260.266667 476.444444c-5.688889-2.133333-11.377778-2.844444-17.066667-2.844444-28.444444 0-51.2 22.755556-51.2 51.2s22.755556 51.2 51.2 51.2z m0 0" fill="#FFFFFF" p-id="2333"></path><path d="M780.8 550.4c-28.444444 0-51.2 22.755556-51.2 51.2 0 12.8 4.977778 24.888889 13.511111 34.133333l-66.133333 109.511111c-9.244444-9.955556-22.044444-15.644444-36.977778-15.644444-14.222222 0-27.022222 5.688889-36.266667 14.933333L521.244444 591.644444l-1.422222 5.688889c2.844444-6.4 4.977778-13.511111 4.977778-21.333333 0-28.444444-22.755556-51.2-51.2-51.2S422.4 547.555556 422.4 576s22.755556 51.2 51.2 51.2c12.088889 0 22.755556-4.266667 31.288889-11.377778l84.622222 156.444445c-0.711111 2.844444-0.711111 4.977778-0.711111 7.822222 0 28.444444 22.755556 51.2 51.2 51.2s51.2-22.755556 51.2-51.2c0-2.844444-0.711111-4.977778-0.711111-7.822222l73.955555-123.022223c4.977778 2.133333 10.666667 2.844444 16.355556 2.844445 28.444444 0 51.2-22.755556 51.2-51.2 0-27.733333-22.755556-50.488889-51.2-50.488889z m0 0" fill="#FFFFFF" p-id="2334"></path><path d="M423.822222 578.133333L277.333333 653.511111c-9.244444-8.533333-21.333333-13.511111-34.133333-13.511111-28.444444 0-51.2 22.755556-51.2 51.2s22.755556 51.2 51.2 51.2 51.2-22.755556 51.2-51.2c0-5.688889-1.422222-11.377778-2.844444-16.355556l145.066666-73.955555-12.8-22.755556z m0 0" fill="#FFFFFF" p-id="2335"></path></svg>