<?xml version="1.0" standalone="no"?><!DOCTYPE svg PUBLIC "-//W3C//DTD SVG 1.1//EN" "http://www.w3.org/Graphics/SVG/1.1/DTD/svg11.dtd"><svg t="1483683196381" class="icon" style="" viewBox="0 0 1024 1024" version="1.1" xmlns="http://www.w3.org/2000/svg" p-id="3122" xmlns:xlink="http://www.w3.org/1999/xlink" width="200" height="200"><defs><style type="text/css"></style></defs><path d="M810.666667 1024H213.333333c-117.333333 0-213.333333-96-213.333333-213.333333V213.333333C0 96 96 0 213.333333 0h597.333334c117.333333 0 213.333333 96 213.333333 213.333333v597.333334c0 117.333333-96 213.333333-213.333333 213.333333z" fill="#E89D4D" p-id="3123"></path><path d="M679.822222 369.777778l177.777778-195.555556h-106.666667l71.111111-88.888889H697.6l-53.333333 142.222223h88.888889z" fill="#FFFFFF" p-id="3124"></path><path d="M818.488889 595.911111l43.377778-162.133333-188.444445 24.888889 54.755556 51.2-45.511111 36.266666-136.533334-313.6h-128l-256 592.355556h140.8l32-73.244445 143.644445-113.777777L554.666667 706.133333l41.244444-33.422222 10.666667 24.177778 54.755555 128h140.8L700.444444 588.8l59.733334-47.644444 58.311111 54.755555z m-262.4 52.622222l-76.088889-68.266666-108.088889 85.333333 36.266667-84.622222 74.666666-172.088889 73.955556 172.088889 21.333333 49.777778-22.044444 17.777777z" fill="#FFFFFF" p-id="3125"></path></svg>